<svg xmlns="http://www.w3.org/2000/svg" height="24" viewBox="0 0 24 24" width="24" focusable="false" style="pointer-events: none; display: block; width: 100%; height: 100%;"><path d="M15.05 13.91l.88-3.32-3.15.53 1.25-2.82-3.53 1.51.52-3.17-2.81 1.25 1.5-3.54-3.16.53.88 3.32-2.82-1.25 1.51 3.53-3.32-.88.53 3.15-2.82-1.25 1.51 3.53-3.17-.52 1.25 2.81-3.54-1.5 3.32.88-.88 3.32 3.15-.53-1.25 2.82 3.53-1.51-.52 3.17 2.81-1.25-1.5 3.54 3.16-.53-.88-3.32 2.82 1.25-1.51-3.53 3.32.88-.53-3.15 2.82 1.25-1.51-3.53 3.17.52-1.25-2.81 3.54 1.5-3.32-.88z"></path></svg>